<svg width="80" height="80" viewBox="0 0 80 80" fill="none" xmlns="http://www.w3.org/2000/svg">
<path d="M23.3333 53.3334C24.6594 53.3334 25.9312 52.8066 26.8689 51.8689C27.8066 50.9313 28.3333 49.6595 28.3333 48.3334C28.3496 48.1671 28.3496 47.9997 28.3333 47.8334L37.6333 38.5334H39.1667L44.5333 43.9001V44.1667C44.5333 45.4928 45.0601 46.7646 45.9978 47.7023C46.9355 48.64 48.2073 49.1668 49.5333 49.1668C50.8594 49.1668 52.1312 48.64 53.0689 47.7023C54.0065 46.7646 54.5333 45.4928 54.5333 44.1667V43.9001L66.6667 31.6667C67.6556 31.6667 68.6223 31.3735 69.4445 30.8241C70.2668 30.2747 70.9076 29.4938 71.2861 28.5802C71.6645 27.6665 71.7635 26.6612 71.5706 25.6913C71.3777 24.7214 70.9015 23.8305 70.2022 23.1312C69.5029 22.432 68.612 21.9557 67.6421 21.7628C66.6722 21.5699 65.6669 21.6689 64.7533 22.0474C63.8396 22.4258 63.0587 23.0667 62.5093 23.8889C61.9599 24.7111 61.6667 25.6778 61.6667 26.6667C61.6504 26.833 61.6504 27.0005 61.6667 27.1667L49.6333 39.2001H49.1L43.3333 33.3334C43.3333 32.0073 42.8066 30.7356 41.8689 29.7979C40.9312 28.8602 39.6594 28.3334 38.3333 28.3334C37.0073 28.3334 35.7355 28.8602 34.7978 29.7979C33.8601 30.7356 33.3333 32.0073 33.3333 33.3334L23.3333 43.3334C22.0073 43.3334 20.7355 43.8602 19.7978 44.7979C18.8601 45.7356 18.3333 47.0073 18.3333 48.3334C18.3333 49.6595 18.8601 50.9313 19.7978 51.8689C20.7355 52.8066 22.0073 53.3334 23.3333 53.3334ZM68.3333 66.6668H11.6667V10.0001C11.6667 9.11603 11.3155 8.26818 10.6904 7.64306C10.0652 7.01794 9.21739 6.66675 8.33333 6.66675C7.44928 6.66675 6.60143 7.01794 5.97631 7.64306C5.35119 8.26818 5 9.11603 5 10.0001V70.0001C5 70.8841 5.35119 71.732 5.97631 72.3571C6.60143 72.9822 7.44928 73.3334 8.33333 73.3334H68.3333C69.2174 73.3334 70.0652 72.9822 70.6904 72.3571C71.3155 71.732 71.6667 70.8841 71.6667 70.0001C71.6667 69.116 71.3155 68.2682 70.6904 67.6431C70.0652 67.0179 69.2174 66.6668 68.3333 66.6668Z" fill="url(#paint0_linear_1_543)"/>
<defs>
<linearGradient id="paint0_linear_1_543" x1="5" y1="40.0001" x2="74" y2="40.0001" gradientUnits="userSpaceOnUse">
<stop stop-color="#00ABAD"/>
<stop offset="0.921875" stop-color="#28649C"/>
</linearGradient>
</defs>
</svg>
