<svg width="80" height="80" viewBox="0 0 80 80" fill="none" xmlns="http://www.w3.org/2000/svg">
<path d="M20.0375 46.1875C20.046 46.3568 20.0199 46.5261 19.9609 46.6851C19.9019 46.844 19.8112 46.9893 19.6942 47.1121C19.5773 47.2348 19.4366 47.3325 19.2807 47.3992C19.1249 47.4659 18.9571 47.5002 18.7875 47.5H5C4.43574 47.5008 3.88778 47.3108 3.44523 46.9607C3.00269 46.6107 2.69158 46.1212 2.5625 45.5719C2.48213 45.1959 2.48584 44.8068 2.57335 44.4324C2.66087 44.058 2.83004 43.7076 3.06875 43.4062C5.27441 40.4812 8.20091 38.1781 11.5625 36.7219C10.0866 35.3762 8.95471 33.6966 8.26149 31.8235C7.56827 29.9505 7.33396 27.9386 7.57817 25.9564C7.82238 23.9742 8.53801 22.0793 9.66513 20.4306C10.7922 18.7818 12.298 17.4271 14.0563 16.4799C15.8147 15.5328 17.7744 15.0207 19.7713 14.9867C21.7682 14.9526 23.7442 15.3976 25.5338 16.2842C27.3234 17.1709 28.8745 18.4735 30.0571 20.0829C31.2398 21.6923 32.0196 23.5616 32.3313 25.5344C32.3715 25.7996 32.324 26.0708 32.1959 26.3066C32.0679 26.5424 31.8663 26.7299 31.6219 26.8406C28.1544 28.4437 25.2177 31.0051 23.1585 34.2227C21.0992 37.4403 20.0033 41.1798 20 45C20 45.4 20 45.7937 20.0375 46.1875ZM76.9125 43.4031C74.712 40.4814 71.7921 38.1796 68.4375 36.7219C69.9134 35.3762 71.0453 33.6966 71.7385 31.8235C72.4317 29.9505 72.666 27.9386 72.4218 25.9564C72.1776 23.9742 71.462 22.0793 70.3349 20.4306C69.2078 18.7818 67.702 17.4271 65.9437 16.4799C64.1853 15.5328 62.2256 15.0207 60.2287 14.9867C58.2318 14.9526 56.2558 15.3976 54.4662 16.2842C52.6766 17.1709 51.1255 18.4735 49.9429 20.0829C48.7602 21.6923 47.9804 23.5616 47.6688 25.5344C47.6285 25.7996 47.676 26.0708 47.8041 26.3066C47.9321 26.5424 48.1337 26.7299 48.3781 26.8406C51.8457 28.4437 54.7823 31.0051 56.8415 34.2227C58.9008 37.4403 59.9967 41.1798 60 45C60 45.4 60 45.7937 59.9625 46.1875C59.954 46.3568 59.9801 46.5261 60.0391 46.6851C60.0981 46.844 60.1888 46.9893 60.3058 47.1121C60.4227 47.2348 60.5634 47.3325 60.7193 47.3992C60.8751 47.4659 61.043 47.5002 61.2125 47.5H75C75.5643 47.5008 76.1122 47.3108 76.5548 46.9607C76.9973 46.6107 77.3084 46.1212 77.4375 45.5719C77.5184 45.1952 77.5146 44.8053 77.4265 44.4302C77.3384 44.0552 77.1682 43.7044 76.9281 43.4031H76.9125ZM49.1 56.8969C51.5892 54.9905 53.4185 52.3521 54.3307 49.3524C55.243 46.3527 55.1923 43.1425 54.1859 40.1731C53.1795 37.2037 51.2678 34.6242 48.7197 32.7974C46.1716 30.9705 43.115 29.988 39.9797 29.988C36.8443 29.988 33.7878 30.9705 31.2397 32.7974C28.6916 34.6242 26.7799 37.2037 25.7735 40.1731C24.767 43.1425 24.7164 46.3527 25.6286 49.3524C26.5409 52.3521 28.3702 54.9905 30.8594 56.8969C26.4423 58.8107 22.754 62.0884 20.3344 66.25C20.1149 66.6301 19.9994 67.0612 19.9994 67.5001C19.9995 67.939 20.115 68.3702 20.3345 68.7502C20.554 69.1303 20.8697 69.4459 21.2498 69.6653C21.6299 69.8846 22.0611 70.0001 22.5 70H57.5C57.9389 70.0001 58.3701 69.8846 58.7502 69.6653C59.1303 69.4459 59.446 69.1303 59.6655 68.7502C59.885 68.3702 60.0005 67.939 60.0006 67.5001C60.0006 67.0612 59.8851 66.6301 59.6656 66.25C57.2408 62.0857 53.5457 58.8077 49.1219 56.8969H49.1Z" fill="url(#paint0_linear_1_558)"/>
<defs>
<linearGradient id="paint0_linear_1_558" x1="2.50485" y1="42.4924" x2="80.1202" y2="42.4924" gradientUnits="userSpaceOnUse">
<stop stop-color="#00ABAD"/>
<stop offset="0.921875" stop-color="#28649C"/>
</linearGradient>
</defs>
</svg>
