<svg width="80" height="80" viewBox="0 0 80 80" fill="none" xmlns="http://www.w3.org/2000/svg">
<mask id="mask0_1_573" style="mask-type:luminance" maskUnits="userSpaceOnUse" x="6" y="6" width="68" height="69">
<path d="M23.3333 56.6667C27.9357 56.6667 31.6667 52.9357 31.6667 48.3333C31.6667 43.731 27.9357 40 23.3333 40C18.731 40 15 43.731 15 48.3333C15 52.9357 18.731 56.6667 23.3333 56.6667Z" fill="white" stroke="white" stroke-width="1.33333" stroke-linecap="round" stroke-linejoin="round"/>
<path d="M56.6667 56.6667C61.2691 56.6667 65 52.9357 65 48.3333C65 43.731 61.2691 40 56.6667 40C52.0643 40 48.3333 43.731 48.3333 48.3333C48.3333 52.9357 52.0643 56.6667 56.6667 56.6667Z" fill="white" stroke="white" stroke-width="1.33333" stroke-linecap="round" stroke-linejoin="round"/>
<path d="M40 23.3334C44.6024 23.3334 48.3334 19.6025 48.3334 15.0001C48.3334 10.3977 44.6024 6.66675 40 6.66675C35.3976 6.66675 31.6667 10.3977 31.6667 15.0001C31.6667 19.6025 35.3976 23.3334 40 23.3334Z" fill="white" stroke="white" stroke-width="1.33333" stroke-linecap="round" stroke-linejoin="round"/>
<path d="M6.66667 73.3335C6.66667 64.1285 14.1283 56.6668 23.3333 56.6668C32.5383 56.6668 40 64.1285 40 73.3335C40 64.1285 47.4617 56.6668 56.6667 56.6668C65.8717 56.6668 73.3333 64.1285 73.3333 73.3335M56.6667 40.0002C56.6667 30.7952 49.205 23.3335 40 23.3335C30.795 23.3335 23.3333 30.7952 23.3333 40.0002" stroke="white" stroke-width="1.33333" stroke-linecap="round" stroke-linejoin="round"/>
</mask>
<g mask="url(#mask0_1_573)">
<path d="M0 0H80V80H0V0Z" fill="url(#paint0_linear_1_573)"/>
</g>
<defs>
<linearGradient id="paint0_linear_1_573" x1="0" y1="40" x2="82.8" y2="40" gradientUnits="userSpaceOnUse">
<stop stop-color="#00ABAD"/>
<stop offset="0.921875" stop-color="#28649C"/>
</linearGradient>
</defs>
</svg>
