<svg width="80" height="80" viewBox="0 0 80 80" fill="none" xmlns="http://www.w3.org/2000/svg">
<path d="M12 28C12 25.8783 12.8429 23.8434 14.3431 22.3431C15.8434 20.8429 17.8783 20 20 20H60C62.1217 20 64.1566 20.8429 65.6569 22.3431C67.1571 23.8434 68 25.8783 68 28V35.628C67.253 35.0458 66.5547 34.4037 65.912 33.708C65.3783 33.1341 64.7258 32.6836 64 32.388V28C64 26.9391 63.5786 25.9217 62.8284 25.1716C62.0783 24.4214 61.0609 24 60 24H20C18.9391 24 17.9217 24.4214 17.1716 25.1716C16.4214 25.9217 16 26.9391 16 28V48C16 49.0609 16.4214 50.0783 17.1716 50.8284C17.9217 51.5786 18.9391 52 20 52H44.008V52.536L44.024 53.556V53.588C44.052 54.404 44.108 55.212 44.196 56H20C17.8783 56 15.8434 55.1571 14.3431 53.6569C12.8429 52.1566 12 50.1217 12 48V28ZM46.432 64C45.8139 62.7158 45.3171 61.3766 44.948 60H10C9.46957 60 8.96086 60.2107 8.58579 60.5858C8.21071 60.9609 8 61.4696 8 62C8 62.5304 8.21071 63.0391 8.58579 63.4142C8.96086 63.7893 9.46957 64 10 64H46.432ZM62.004 72C61.8538 71.9986 61.705 71.9716 61.564 71.92C58.8 70.936 56.444 69.628 54.52 68.004L54.512 68C53.1461 66.8555 51.9643 65.5077 51.008 64.004L51 64C49.152 61.088 48.152 57.568 48.02 53.46L48.004 52.5V43.5C48.004 42.672 48.632 42 49.404 42C53.684 42 57.536 40.168 61.016 36.44C61.1409 36.3029 61.2928 36.1931 61.4621 36.1174C61.6314 36.0417 61.8145 36.0017 62 36C62.356 36 62.712 36.148 62.984 36.44C66.464 40.168 70.312 42 74.596 42C75.368 42 75.996 42.672 75.996 43.5V52.5L75.98 53.46C75.848 57.568 74.848 61.088 73 64C72.048 65.492 70.88 66.828 69.488 68C67.556 69.62 65.208 70.936 62.44 71.924C62.2987 71.9741 62.1499 71.9998 62 72H62.004Z" fill="url(#paint0_linear_1_625)"/>
<defs>
<linearGradient id="paint0_linear_1_625" x1="8" y1="46" x2="78.3759" y2="46" gradientUnits="userSpaceOnUse">
<stop stop-color="#00ABAD"/>
<stop offset="0.921875" stop-color="#28649C"/>
</linearGradient>
</defs>
</svg>
