<svg width="80" height="80" viewBox="0 0 80 80" fill="none" xmlns="http://www.w3.org/2000/svg">
<path d="M15 33.3333H33.3333C35.6667 33.3279 37.9248 32.5066 39.7165 31.0117C41.5082 29.5167 42.7206 27.4423 43.144 25.1476C43.5673 22.8529 43.1748 20.4823 42.0345 18.4465C40.8942 16.4107 39.0778 14.8377 36.9 14C35.6467 11.5401 33.6607 9.52992 31.2162 8.24688C28.7718 6.96385 25.9893 6.47125 23.2529 6.83708C20.5165 7.2029 17.9611 8.40912 15.9395 10.2892C13.9179 12.1693 12.5297 14.6306 11.9666 17.3333C10.216 18.0772 8.77249 19.3975 7.87592 21.0751C6.97934 22.7526 6.68365 24.6864 7.03795 26.5553C7.39224 28.4241 8.37521 30.1155 9.82358 31.3485C11.2719 32.5815 13.0985 33.2819 15 33.3333ZM15 23.3333C15.884 23.3333 16.7319 22.9821 17.357 22.357C17.9821 21.7319 18.3333 20.8841 18.3333 20C18.3443 18.4276 18.9108 16.9096 19.9326 15.7144C20.9545 14.5192 22.3659 13.7237 23.9175 13.4684C25.4691 13.2132 27.061 13.5146 28.4119 14.3194C29.7628 15.1242 30.7858 16.3806 31.3 17.8667C31.4955 18.4333 31.8402 18.9366 32.2978 19.3238C32.7553 19.711 33.3088 19.9676 33.9 20.0667C34.6713 20.1997 35.3711 20.5999 35.877 21.1972C36.3828 21.7944 36.6624 22.5507 36.6666 23.3333C36.6666 24.2174 36.3154 25.0652 35.6903 25.6904C35.0652 26.3155 34.2173 26.6667 33.3333 26.6667H15C14.5579 26.6667 14.134 26.4911 13.8214 26.1785C13.5089 25.866 13.3333 25.442 13.3333 25C13.3333 24.558 13.5089 24.1341 13.8214 23.8215C14.134 23.5089 14.5579 23.3333 15 23.3333ZM70 53.3333H66.6666V30C66.6666 27.3478 65.6131 24.8043 63.7377 22.9289C61.8623 21.0536 59.3188 20 56.6666 20H53.3333C52.4492 20 51.6014 20.3512 50.9763 20.9763C50.3511 21.6014 50 22.4493 50 23.3333C50 24.2174 50.3511 25.0652 50.9763 25.6904C51.6014 26.3155 52.4492 26.6667 53.3333 26.6667H56.6666C57.5507 26.6667 58.3985 27.0179 59.0237 27.643C59.6488 28.2681 60 29.1159 60 30V53.3333H20V43.3333C20 42.4493 19.6488 41.6014 19.0236 40.9763C18.3985 40.3512 17.5507 40 16.6666 40C15.7826 40 14.9347 40.3512 14.3096 40.9763C13.6845 41.6014 13.3333 42.4493 13.3333 43.3333V53.3333H9.99996C9.1159 53.3333 8.26806 53.6845 7.64294 54.3096C7.01782 54.9348 6.66663 55.7826 6.66663 56.6667V63.3333C6.66663 65.9855 7.72019 68.529 9.59556 70.4044C11.4709 72.2798 14.0145 73.3333 16.6666 73.3333H63.3333C65.9855 73.3333 68.529 72.2798 70.4044 70.4044C72.2797 68.529 73.3333 65.9855 73.3333 63.3333V56.6667C73.3333 55.7826 72.9821 54.9348 72.357 54.3096C71.7319 53.6845 70.884 53.3333 70 53.3333ZM66.6666 63.3333C66.6666 64.2174 66.3154 65.0652 65.6903 65.6904C65.0652 66.3155 64.2173 66.6667 63.3333 66.6667H16.6666C15.7826 66.6667 14.9347 66.3155 14.3096 65.6904C13.6845 65.0652 13.3333 64.2174 13.3333 63.3333V60H66.6666V63.3333Z" fill="url(#paint0_linear_1_589)"/>
<defs>
<linearGradient id="paint0_linear_1_589" x1="6.66663" y1="40.0264" x2="75.6666" y2="40.0264" gradientUnits="userSpaceOnUse">
<stop stop-color="#00ABAD"/>
<stop offset="0.921875" stop-color="#28649C"/>
</linearGradient>
</defs>
</svg>
