<svg width="80" height="80" viewBox="0 0 80 80" fill="none" xmlns="http://www.w3.org/2000/svg">
<path d="M36.6668 15H18.3335C17.0074 15 15.7356 15.5268 14.798 16.4645C13.8603 17.4021 13.3335 18.6739 13.3335 20V55H66.6668V36.6667" stroke="url(#paint0_linear_1_612)" stroke-width="4" stroke-linecap="round" stroke-linejoin="round"/>
<path d="M6.66675 55H73.3334V58.3333C73.3334 60.9855 72.2798 63.529 70.4045 65.4044C68.5291 67.2798 65.9856 68.3333 63.3334 68.3333H16.6667C14.0146 68.3333 11.471 67.2798 9.59568 65.4044C7.72032 63.529 6.66675 60.9855 6.66675 58.3333V55Z" stroke="url(#paint1_linear_1_612)" stroke-width="4" stroke-linejoin="round"/>
<path d="M55.0002 11.6667L48.3335 18.3334L55.0002 25.0001M65.0002 11.6667L71.6668 18.3334L65.0002 25.0001" stroke="url(#paint2_linear_1_612)" stroke-width="4" stroke-linecap="round" stroke-linejoin="round"/>
<defs>
<linearGradient id="paint0_linear_1_612" x1="13.3335" y1="35" x2="68.5335" y2="35" gradientUnits="userSpaceOnUse">
<stop stop-color="#00ABAD"/>
<stop offset="0.921875" stop-color="#28649C"/>
</linearGradient>
<linearGradient id="paint1_linear_1_612" x1="6.66675" y1="61.6667" x2="75.6667" y2="61.6667" gradientUnits="userSpaceOnUse">
<stop stop-color="#00ABAD"/>
<stop offset="0.921875" stop-color="#28649C"/>
</linearGradient>
<linearGradient id="paint2_linear_1_612" x1="48.3335" y1="18.3334" x2="72.4835" y2="18.3334" gradientUnits="userSpaceOnUse">
<stop stop-color="#00ABAD"/>
<stop offset="0.921875" stop-color="#28649C"/>
</linearGradient>
</defs>
</svg>
